<svg xmlns="http://www.w3.org/2000/svg" viewBox="0 0 342 91.7"><defs><style>.ad7a8fc2-2745-45e5-abaf-c36895317923{fill:#fff;}</style></defs><title>Asset 1</title><g id="f1789685-fb10-49db-8fb0-bc92175292dc" data-name="Layer 2"><g id="aac3a64c-1690-4615-9f26-571faa2767b0" data-name="Layer 1"><path class="ad7a8fc2-2745-45e5-abaf-c36895317923" d="M0,2.3H16.2L33.6,40.4,51,2.3H67.2L42.3,51.2H24.9Z"/><path class="ad7a8fc2-2745-45e5-abaf-c36895317923" d="M210.5,0h13.9V24.8a20.8,20.8,0,0,0,.9,6.3,10.5,10.5,0,0,0,2.9,5,13.5,13.5,0,0,0,5.4,3.1,24.2,24.2,0,0,0,8.6,1.2A27.4,27.4,0,0,0,256,36.6a23.1,23.1,0,0,0,3.4-2.5V0h13.9V50.1H259.4V46.9a56.3,56.3,0,0,1-20.2,4.3,40.6,40.6,0,0,1-13.1-1.6,24.5,24.5,0,0,1-8.9-4.9,18.9,18.9,0,0,1-5.1-7.8,31.3,31.3,0,0,1-1.6-10.5Z"/><path class="ad7a8fc2-2745-45e5-abaf-c36895317923" d="M204.6,51.2h-14V26.5a25.5,25.5,0,0,0-.8-6.4,12.1,12.1,0,0,0-2.9-4.9,14,14,0,0,0-5.5-3.2,26.8,26.8,0,0,0-8.5-1.1,25.6,25.6,0,0,0-13.8,3.7,27.4,27.4,0,0,0-3.4,2.5V51.2h-14V1.2h14V4.3A58.2,58.2,0,0,1,175.9,0,40.5,40.5,0,0,1,189,1.7a23,23,0,0,1,8.9,4.8,17.8,17.8,0,0,1,5,7.8,31.4,31.4,0,0,1,1.7,10.6Z"/><path class="ad7a8fc2-2745-45e5-abaf-c36895317923" d="M68.6,25.5a20.7,20.7,0,0,1,2.3-9.7,26.1,26.1,0,0,1,6.5-8.1A32.7,32.7,0,0,1,87.9,2.1a43.4,43.4,0,0,1,14-2.1A44,44,0,0,1,116,2.1a33.2,33.2,0,0,1,10.7,5.8,25.5,25.5,0,0,1,6.7,8.7,24.3,24.3,0,0,1,2.4,10.7,7.6,7.6,0,0,1-.1,1.5,6.6,6.6,0,0,1-.1,1.5H83.9a11.1,11.1,0,0,0,2.8,4.1,20.5,20.5,0,0,0,5,3.2,25.9,25.9,0,0,0,6.8,2,46,46,0,0,0,8.7.8,49.9,49.9,0,0,0,9.4-.9,77.1,77.1,0,0,0,8.9-2.3l4.7,9.5-5.5,2L119,50.1a41.7,41.7,0,0,1-6.3.8q-3.3.3-6.9.3a57,57,0,0,1-16.2-2A33.8,33.8,0,0,1,78,43.7a22.3,22.3,0,0,1-7-8.1A22.1,22.1,0,0,1,68.6,25.5Zm52.6-4.9a13.3,13.3,0,0,0-6.2-6.9,19.6,19.6,0,0,0-5.3-2.1,29,29,0,0,0-6.8-.7,25.4,25.4,0,0,0-7,.8,21.2,21.2,0,0,0-5.7,2.1,15.8,15.8,0,0,0-4,3.1,13.3,13.3,0,0,0-2.3,3.7Z"/><path class="ad7a8fc2-2745-45e5-abaf-c36895317923" d="M285.2,34.4a47.3,47.3,0,0,0,12.3,4.5,68.4,68.4,0,0,0,13.7,1.4,42.6,42.6,0,0,0,7.8-.6,22.4,22.4,0,0,0,5.1-1.5,5.9,5.9,0,0,0,2.7-2.1,2.6,2.6,0,0,0,.6-2.7,4.1,4.1,0,0,0-1.5-2.1,9.8,9.8,0,0,0-5.6-1.3l-3.9.2-4.4.5-4.8.4a41,41,0,0,1-5,.2,33.1,33.1,0,0,1-9.5-1.1,17,17,0,0,1-6.4-2.9,11.9,11.9,0,0,1-4.1-5.3,11.3,11.3,0,0,1-.6-4,29,29,0,0,1,.5-4.2c1.3-4.9,6-8.2,7.1-8.9a24.4,24.4,0,0,1,8.7-3.6A44.7,44.7,0,0,1,309.3,0a55.3,55.3,0,0,1,6.9.4,58.5,58.5,0,0,1,7.1.9A62.9,62.9,0,0,1,335.6,5l-4.3,9.7a80.2,80.2,0,0,0-10.4-2.8,54.9,54.9,0,0,0-10.8-1,31.2,31.2,0,0,0-6.5.5,13.6,13.6,0,0,0-4.3,1.4,6.3,6.3,0,0,0-2.5,1.9,4.8,4.8,0,0,0-.7,3,3.2,3.2,0,0,0,.8,1.9,5.1,5.1,0,0,0,3.2,1.7,13.1,13.1,0,0,0,3.6.3l4.2-.2,4.5-.5,4.9-.4a44.3,44.3,0,0,1,5.2-.2,29.7,29.7,0,0,1,8.6,1c2.6.8,7.4,2.3,9.7,6.7a11.6,11.6,0,0,1,1.2,5.6,12.8,12.8,0,0,1-2,6.6,16.9,16.9,0,0,1-5.9,5.8,37.1,37.1,0,0,1-9.8,3.9,62.2,62.2,0,0,1-13.6,1.3,69,69,0,0,1-9.2-.5,58.8,58.8,0,0,1-8.3-1.4,55.1,55.1,0,0,1-13.9-5.5Z"/><path class="ad7a8fc2-2745-45e5-abaf-c36895317923" d="M103.4,78.6a5.9,5.9,0,0,1,.5-2.3,6.4,6.4,0,0,1,1.6-1.7,6.7,6.7,0,0,1,2.7-1.1,14.3,14.3,0,0,1,3.8-.4,19.4,19.4,0,0,1,3.3.2,22.9,22.9,0,0,1,3.6.7,3,3,0,0,0-.5-1.5,3.2,3.2,0,0,0-1.1-1.2,7.5,7.5,0,0,0-1.8-.8,9.3,9.3,0,0,0-2.4-.3h-1.6l-1.8.3-1.9.4-1.7.7-1.3-3.6,2.1-.6,2.3-.5a8.5,8.5,0,0,1,2.3-.3l2.3-.2c3.2,0,5.6.9,7.1,2.5s2.4,4.2,2.4,7.5V84H119V82.4l-1.5.7-1.7.7-2,.4h-2.3a12.5,12.5,0,0,1-3.5-.4,8.9,8.9,0,0,1-2.6-1.2,4.3,4.3,0,0,1-1.5-1.8A4.6,4.6,0,0,1,103.4,78.6Zm4.5-.1a3.1,3.1,0,0,0,.2.8l.7.7,1.3.4a5,5,0,0,0,1.8.2l2.2-.2,2-.5,1.6-.8,1.3-.9v-.8l-2-.4-1.9-.3-1.6-.2h-3.4l-1.3.5c-.3.1-.5.4-.7.6A1.9,1.9,0,0,0,107.9,78.5Z"/><path class="ad7a8fc2-2745-45e5-abaf-c36895317923" d="M130.2,86.9l1.6.5a10.1,10.1,0,0,0,1.7.3l1.5.2h1.3a9.4,9.4,0,0,0,3-.5,5.3,5.3,0,0,0,2.1-1.1,4,4,0,0,0,1.3-1.6,4.3,4.3,0,0,0,.4-1.9v-.8l-1.3.7-1.6.7-1.9.4h-2.1a12.3,12.3,0,0,1-3.9-.6,8.7,8.7,0,0,1-3.1-1.8,9,9,0,0,1-2-2.7,9.6,9.6,0,0,1,0-7.2,7.4,7.4,0,0,1,2.2-2.8,9.7,9.7,0,0,1,3.2-1.7,10.5,10.5,0,0,1,4-.7l1.9.2a4.7,4.7,0,0,1,1.7.3l1.6.5,1.3.6V66.8h4.3V82.1a10.7,10.7,0,0,1-.7,4.1,8.1,8.1,0,0,1-2.1,3,7.5,7.5,0,0,1-3.4,1.9,16.8,16.8,0,0,1-4.7.6h-1.9l-2.1-.3-2-.3-1.9-.5Zm.8-11.6a4.1,4.1,0,0,0,.4,1.9,4.8,4.8,0,0,0,1.2,1.6,5.4,5.4,0,0,0,1.8,1.1,10.1,10.1,0,0,0,2.5.4l1.8-.2,1.7-.5,1.5-.7a5.8,5.8,0,0,0,1.2-1V72.2l-1.4-.8a4.7,4.7,0,0,0-1.5-.6l-1.5-.4h-1.5a6.8,6.8,0,0,0-2.6.4,5.5,5.5,0,0,0-2,1.1,4.4,4.4,0,0,0-1.2,1.5A4.8,4.8,0,0,0,131,75.3Z"/><path class="ad7a8fc2-2745-45e5-abaf-c36895317923" d="M150.6,75.4a8,8,0,0,1,.7-3.4,9.4,9.4,0,0,1,2.1-2.8,10.6,10.6,0,0,1,3.3-1.9,11.5,11.5,0,0,1,4.4-.8,12.3,12.3,0,0,1,4.4.8,10.5,10.5,0,0,1,3.4,2,8.1,8.1,0,0,1,2.1,3,9.4,9.4,0,0,1,.7,3.7v1.1H155.4a5.5,5.5,0,0,0,.9,1.4,5,5,0,0,0,1.6,1.1,10.3,10.3,0,0,0,2.1.7,11.2,11.2,0,0,0,2.7.3,10.3,10.3,0,0,0,3-.4,12.9,12.9,0,0,0,2.8-.8l1.4,3.3-1.7.7-1.8.5a6.3,6.3,0,0,1-1.9.3h-2.2a16.1,16.1,0,0,1-5.1-.7,9.5,9.5,0,0,1-3.6-1.9,7.7,7.7,0,0,1-2.3-2.8A10.4,10.4,0,0,1,150.6,75.4Zm16.5-1.7a3.3,3.3,0,0,0-.7-1.3,4.3,4.3,0,0,0-1.2-1.1,5.1,5.1,0,0,0-1.7-.7,6.6,6.6,0,0,0-2.1-.3,7.3,7.3,0,0,0-2.2.3,7.5,7.5,0,0,0-1.8.7,6.9,6.9,0,0,0-1.3,1.1,5.4,5.4,0,0,0-.7,1.3Z"/><path class="ad7a8fc2-2745-45e5-abaf-c36895317923" d="M174.9,66.8h4.3v1.5a11.7,11.7,0,0,1,3.3-1.4,15.4,15.4,0,0,1,3-.4,10.6,10.6,0,0,1,3.7.6,9.2,9.2,0,0,1,2.9,1.7,8.6,8.6,0,0,1,1.9,2.9,9.4,9.4,0,0,1,.7,3.9V84h-4.3V76.3a6.2,6.2,0,0,0-.4-2.5,5.2,5.2,0,0,0-1.2-1.9,5.7,5.7,0,0,0-1.8-1.2,6.1,6.1,0,0,0-2.4-.4l-1.4.2-1.4.4a5.9,5.9,0,0,0-1.4.6l-1.2.9V84h-4.3Z"/><path class="ad7a8fc2-2745-45e5-abaf-c36895317923" d="M197.9,75.5a8.6,8.6,0,0,1,.7-3.6,7.6,7.6,0,0,1,2-2.8,10.6,10.6,0,0,1,3.3-1.9,14,14,0,0,1,4.4-.7l2.1.2,2.1.3,1.9.6,1.6.7-2,3.3a13,13,0,0,0-2.7-1,10.9,10.9,0,0,0-2.6-.3,7.5,7.5,0,0,0-2.6.4,5.5,5.5,0,0,0-2,1.1,4,4,0,0,0-1.3,1.6,4.5,4.5,0,0,0-.4,2,4.6,4.6,0,0,0,.5,2.1,4,4,0,0,0,1.3,1.6,5.5,5.5,0,0,0,2,1.1,10.9,10.9,0,0,0,2.6.4,9.4,9.4,0,0,0,3-.5,11.1,11.1,0,0,0,2.7-1.2l2,3.2a9.1,9.1,0,0,1-1.7.9l-1.9.7-2.2.5h-2.3a14.6,14.6,0,0,1-4.4-.6,10.6,10.6,0,0,1-3.3-1.9,8.3,8.3,0,0,1-2.1-2.8A8.4,8.4,0,0,1,197.9,75.5Z"/><path class="ad7a8fc2-2745-45e5-abaf-c36895317923" d="M221.5,86.2l1.5.7a5.2,5.2,0,0,0,1.6.6l1.8.3h1.7a7.6,7.6,0,0,0,4.6-1.2,4.7,4.7,0,0,0,1.6-3.9v-.5L233,83a5.3,5.3,0,0,1-1.5.5l-1.7.4H228a9.5,9.5,0,0,1-3.5-.6,6.3,6.3,0,0,1-2.6-1.6,8.8,8.8,0,0,1-1.7-2.8,13.8,13.8,0,0,1-.5-3.7V66.8H224v7.3a7.2,7.2,0,0,0,1.2,4.6,4.3,4.3,0,0,0,3.7,1.5,6.6,6.6,0,0,0,3.2-.7,5.2,5.2,0,0,0,2.2-1.6V66.8h4.3V82.1a10.9,10.9,0,0,1-.7,4.2,6.9,6.9,0,0,1-2,3,8.8,8.8,0,0,1-3.3,1.8,14.6,14.6,0,0,1-4.4.6,21.4,21.4,0,0,1-4.5-.5,17.4,17.4,0,0,1-3.8-1.4Z"/></g></g></svg>